<svg xmlns="http://www.w3.org/2000/svg" width="756.898" height="382.886" viewBox="0 0 756.898 382.886">
  <g id="Group_2" data-name="Group 2" transform="translate(-769.5 -324.499)">
    <path id="FontAwsome_hand-paper_" data-name="FontAwsome (hand-paper)" d="M293.719,91.976c-16.113-.308-29.3,13.187-29.3,29.3v62.663h-5.748V57.331c0-16.117-13.189-29.612-29.3-29.3a28.741,28.741,0,0,0-28.18,28.736V183.942h-5.748V29.309c0-16.117-13.189-29.612-29.3-29.3a28.741,28.741,0,0,0-28.18,28.736v155.2h-5.748V58.05c0-16.117-13.189-29.612-29.3-29.3a28.741,28.741,0,0,0-28.18,28.736V227.048l-22.74-31.27A28.741,28.741,0,1,0,5.5,229.588L95.746,353.681a34.489,34.489,0,0,0,27.892,14.2H265.612a34.49,34.49,0,0,0,33.572-26.59l19.047-80.949a137.968,137.968,0,0,0,3.667-31.6V120.712A28.74,28.74,0,0,0,293.719,91.976Z" transform="translate(1197 332)" fill="#fff" stroke="#000" stroke-width="15"/>
    <path id="FontAwsome_hand-paper_2" data-name="FontAwsome (hand-paper)" d="M28.179,91.976c16.113-.308,29.3,13.187,29.3,29.3v62.663h5.748V57.331c0-16.117,13.189-29.612,29.3-29.3a28.741,28.741,0,0,1,28.18,28.736V183.942h5.748V29.309c0-16.117,13.189-29.612,29.3-29.3a28.741,28.741,0,0,1,28.18,28.736v155.2h5.748V58.05c0-16.117,13.189-29.612,29.3-29.3a28.741,28.741,0,0,1,28.18,28.736V227.048l22.74-31.27A28.741,28.741,0,1,1,316.4,229.588L226.152,353.681a34.489,34.489,0,0,1-27.892,14.2H56.286a34.49,34.49,0,0,1-33.572-26.59L3.667,260.346A137.968,137.968,0,0,1,0,228.749V120.712A28.74,28.74,0,0,1,28.179,91.976Z" transform="translate(777 332)" fill="#fff" stroke="#000" stroke-width="15"/>
    <path id="FontAwsome_heart_" data-name="FontAwsome (heart)" d="M103.495,38.825C91.225,28.37,72.978,30.25,61.717,41.87l-4.411,4.545L52.9,41.87c-11.239-11.62-29.509-13.5-41.778-3.045A32.148,32.148,0,0,0,8.9,85.372L52.224,130.1a7.019,7.019,0,0,0,10.142,0l43.323-44.733a32.129,32.129,0,0,0-2.194-46.547Z" transform="translate(1091.012 365.033)"/>
  </g>
</svg>
